<?xml version="1.0" encoding="UTF-8" standalone="no"?>
<svg xmlns="http://www.w3.org/2000/svg" version="1.1" viewBox="0 0 500 500">
	<g stroke="none">
		<g fill="#F6ED88" fill-rule="evenodd">
			<path d="M0 0H500V500H-500ZM128.3 342.29c-11.98-7.86-17.74-33.72-19.35-50.49-72.64-20.64-48.83-46.29-14.93-58.11 8.49-7.41 15.97-16.09 27.59-19.6 6.11-18.52 10.57-38.08 13.63-58.53 0.91-17.02 2.52-34.03 2.67-51.05 6.15-15.74 20.91-22.29 35.12-29.42 30.79-17.78 35.91-49.55 71.25-49.55 18.98 0 50.69 8.59 68.69 30.87 11.65 10.11 22.63 18.37 35.55 33.94 20.96 13.85 16.64 51.44 18.04 77.23 0.3 10.41 5.01 38.59 15.64 60.68 3.57 1.92 6.96 4.06 9.76 6.95 27.33 9.72 47.19 22.56 47.19 35.97 0 17.65-29.42 29.62-55.68 37.36-3.93 17.89-11.51 34.49-25.14 44.88-9.52 19.82-7.76 44.04-17.04 60.85-6.03 10.91-16.89 22.23-36.25 38.94-19.48 25.36-44.81 22.94-62.37 21.17-41.26-0.84-58.78-29.53-77.07-43.18-18.82-12.44-27.94-27.03-31.91-42.35-4.28-16.5-5.18-33.5-5.37-46.53z"/>
		</g>
		<g fill="#B55F2D">
			<path d="m135.24 155.55 2.94-51.32c8.94-19.4 21.7-22.22 33.68-28.46 15.38-9.67 27.68-23.56 31.28-27.8 9.33-10.98 22.27-22.73 41.28-21.91-3.57 25.13-6.46 52.3-9.69 78.45-47.77 3.4-76.13 27.66-99.48 51.04z"/>
			<path d="m93.81 233.86c8.97-6.8 16.16-15.8 27.55-19.58 69.76-25.71 132.03-28.97 190.67-15.43l-9.89 17.24C234.98 209.89 167.65 205.26 93.81 233.86Z"/>
		</g>
		<g fill="#771F25">
			<path d="m121.36 214.28c6.63-20.01 10-39.22 13.89-58.21 18.85-19.89 53.56-50.13 99.47-51.56-2.91 47.51-5.06 72.38 4.91 85.99-43.57 1.55-81.99 11.36-118.27 23.78z"/>
		</g>
		<g fill="#250E0E">
			<path d="m239.64 190.5c-12.13-16.57-5.81-57.85-4.91-85.99 54.64 5.13 131.54 39.91 132.17 68.28 3.84 18.83 5.75 38.47 15.24 54.94C337.62 206.77 303.09 192.77 239.64 190.5Z"/>
		</g>
		<g style="fill-opacity:0.5;fill:#000">
			<path d="m122.94 251.9c1.52-9.7 0.14-19.9 15.58-27.19 75.14-16.22 152.29-10.29 213.93 12.95 10.78 5.02 23.2 7.29 21.54 28.06 24.33 32.96 1.47 74.74-15.69 87.69-17.85 43.07 5.06 48.91-53.29 99.79-8.99 12.19-19.43 17.81-30.43 20.98-2.56-10.81 3.33-16.85 7.55-21.07 13.83-13.83 23.4-33.89 33.92-52.26 4.24-7.45 6.93-21.74 10.79-28.43 12.45-32.85 17.23-42.76 14.27-107.06-66.24-20.47-124.97-23.4-180.67-19.28-10.34 5.07-21.19 17.82-37.51 5.84z"/>
		</g>
		<g fill="#28150A">
			<path d="m244.28 25.52c-3.54 25.54-6.4 53.25-9.63 79.42 50.05 2.4 129.64 39.01 132.24 67.85-0.97-24.59 1.03-70.81-18.08-82.84C339.23 79.28 322.56 62.85 313.77 56.66 293.64 32.51 260.54 25.21 244.28 25.52Z"/>
			<path d="M108.95 291.8C73.31 281.78 60.53 269.73 61.41 259.39 62.28 249.19 77.24 241.25 93.81 233.86 150.54 211.39 211.4 208.76 276.88 212.89c4.91 0.31 8.42-0.99 5.46-2.36-22.97-8.37 4.54-15.25 28.73-11.66 18.78 5.19 46.56 16.21 71.13 29.38 4.38 2.24 7.16 4.12 9.76 6.95 26.3 9.14 46.06 23.23 47.42 34.69 1.51 12.72-13.6 25.13-55.92 38.63 2.1-15.73 0.03-30.6-9.45-42.81 0.91-10.06-1.29-18.77-11.91-23.81-73.98-30.28-148.59-32.21-223.57-17.2-14.52 6.99-14.14 17.3-15.58 27.19-15.15 4.74-13.6 30.57-13.99 39.9z"/>
			<path d="m213.59 82.05c-0.29 5.64-0.21 10.49 7.38-0.73l-0.1-24.75c-8.96-13.5-20.92 2.59-26.2 7.8-0.51 3.14 9.16 26.71 18.93 17.68z"/>
		</g>
	</g>
	<g fill="none" stroke="#000" stroke-linecap="round">
		<g stroke-width="0.5">
			<g>
				<path d="m126.43 307.77c3.66 5.94 7.11 12.02 13.7 16.06"/>
				<path d="m122.94 282.63c2.38 5.55 4.92 10.76 7.65 15.59"/>
				<path d="m127.38 299.83c4.39 8.01 9.11 14.61 14.74 17.48"/>
				<path d="m137.3 329.5c-1.45-1.68-4.89-5.31-9.45-10.11"/>
				<path d="m232.86 334.29c7.83-2.46 15.69-4.87 23.65-7.08"/>
				<path d="m241.14 335.96c7.57-2.38 15.32-4.77 23.52-7.15"/>
				<path d="m353.6 342.92c4.1-2.86 8.02-6.24 10.41-10.61"/>
				<path d="m351.99 337.53c4.58-2.63 9.18-5.9 12.65-10.32"/>
				<path d="m350.1 332.05c6.07-2.97 11.74-7.55 16.91-14.08"/>
				<path d="m366.07 310.98c-5.12 9.29-9.95 12.31-15.59 16.44"/>
				<path d="m363.71 306.54c2.58-1.3 4.84-3.66 6.71-7.28"/>
			</g>
			<g>
				<path d="m140.42 159.41c4.25-3.81 9.07-7.18 14.74-9.92"/>
				<path d="m137.3 166.5c7.63-5.97 16.38-11.37 25.42-16.63"/>
				<path d="m134.28 175.95c9.63-6.58 20.88-12.75 33.36-18.62"/>
				<path d="m139.95 180.77c9.67-7.09 19.98-13.11 30.71-18.43"/>
				<path d="m133.43 192.77c12.2-8.46 25.82-15.51 39.78-22.21"/>
				<path d="m132.39 199c9.52-6.35 21.21-10.96 32.41-15.97"/>
				<path d="m136.35 203.92c6.95-5.19 14.78-8.62 23.15-10.96"/>
				<path d="m153.17 119.63c-0.64 1.69-2.71 4.03 0.28 4.06"/>
				<path d="m161.87 110.75c-1.5-0.78-1.67-1.6 1.8-2.55"/>
				<path d="m232.66 52.79c-1.95-0.77-0.86-1.94 1.07-3.21"/>
				<path d="M196.31 98.76C190.86 94.78 186.48 88.65 182.81 81.12"/>
				<path d="m191.63 69.09c2.41 6.51 4.95 12.9 10.16 16.97"/>
				<path d="m187.62 76.31c2.95 7.06 6.58 12.94 10.96 17.51"/>
				<path d="m208.47 107.04c2.83-4.91 6.38-9.99 14.83-16.3"/>
				<path d="m223.84 82.99c-6.63 5.5-12.15 11.11-15.23 16.97"/>
				<path d="m156.22 136.8c6.37-5.2 17.65-12.5 17.97-1.76 0 7.75 7.88 3.38 7.88-0.61 0-5.1 6.08-14.89 9.56-19.5"/>
			</g>
		</g>
		<g stroke-width="1.5">
			<g>
				<path d="m121.61 214.08c6.37-17.91 10.05-38.18 13.63-58.53 1.03-17.08 2.31-34.3 2.67-51.05 6.35-15.37 19.07-21.21 34.48-29 32.6-18.82 35.98-49.98 72.43-49.98 5.52 0 45.92 2.67 68.15 30.87 11.54 9.91 22.8 18.53 35.55 33.94 21.1 13.21 16.57 54.43 18.4 81.85 2.37 18.74 6.64 37.65 15.28 56.06"/>
				<path d="m244.28 25.52-9.76 78.98C233.43 133.35 228.07 176.62 239.64 190.5"/>
				<path d="m135.26 156.07c22.76-25.44 56.91-49.25 99.29-51.05 36.99 0 122.42 32.13 132.23 64.45"/>
				<path d="m94.02 233.68c11.66-11.13 19.84-17.41 27.59-19.6 104.62-38.52 188.7-27.01 260.59 14.17 3.36 1.56 6.74 3.98 9.76 6.95"/>
				<path d="M108.78 291.59C46.53 274.54 50.79 249.98 92.79 234.35 186 198.11 298.8 209.45 383.03 232.02c76.57 25.31 72.92 55.44 0.3 76.55"/>
			</g>
			<g>
				<path d="m124.54 296.05c0.7 6.38 0.66 13.59 3.12 18.24 0.09 76.37 7.06 94.7 37.89 116.98 21.96 17.93 39.2 43.09 77.11 43.09 22.48 2.56 44.45 2.26 62.37-21.17 8.38-6.82 16.76-14.53 25.14-24.19 23.57-23.57 15.52-46.18 27.03-72.76 6.46-16.22 8.99-33.82 12-48.57"/>
				<path d="m128.16 341.7c-18.54-10.55-29.48-82.9-5.21-89.8 1.26-10.24 1.56-20.76 15.58-27.19 60.38-11.22 138.31-18.38 224.29 17.57 6.25 2.96 11.91 8.42 11.19 23.44 24.36 35.07-0.9 77.23-15.87 88.15"/>
			</g>
		</g>
	</g>
</svg>