<?xml version="1.0" encoding="UTF-8" standalone="no"?>
<svg xmlns="http://www.w3.org/2000/svg" version="1.1" viewBox="-5 30 215 250">
	<path fill="#F6ED88" stroke="none" fill-rule="evenodd" d="M-5,30 h215 v250 h-215Z  M 30.603737,174.17091 c -32.9312115,-8.96752 -28.2041187,-21.75537 -7.812492,-29.44649 2.732064,-3.23835 5.842147,-6.41399 14.426035,-10.48831 2.145982,-5.98046 4.685815,-16.11246 6.949009,-29.86736 0.420007,-9.364338 1.191802,-18.416066 1.737252,-27.662397 1.301511,-5.618067 9.648997,-10.857737 17.253158,-14.276029 15.461709,-7.677806 20.312042,-26.734565 37.588381,-25.859077 12.92105,0.576348 25.22227,4.074804 35.68286,16.250462 6.66344,5.196271 12.86819,10.637178 17.77342,16.771162 11.8318,8.324878 8.65227,24.002249 9.77322,37.573259 1.35299,12.54799 3.55863,24.40173 8.88279,34.96414 43.38771,18.75117 31.26246,29.50624 0.15065,40.76221 -2.18332,9.29221 -6.24206,17.57809 -13.25172,24.28055 l -3.20318,8.71392 c -1.82931,17.76584 -4.86942,21.72131 -9.73305,28.00805 -3.80731,4.92134 -7.97198,8.74748 -14.38802,14.02009 -9.92627,13.30624 -21.54182,12.08469 -33.087763,11.46175 C 82.176846,269.80127 72.873556,257.58753 59.988914,247.00182 40.703883,234.27621 42.299786,216.13364 40.491333,200.98668 32.622346,193.1151 30.490021,183.21883 30.603737,174.17091 Z" />
	<g stroke="none">
		<path fill="#791F23" d="m37.217 134.236c3.029-9.711 5.34-19.802 6.949-29.867 13.202-14.204 29.122-25.619 51.516-26.861-0.144 14.364-3.707 35.879 2.472 44.367-21.583 0.721-42.027 5.047-60.937 12.361z"/>
		<g fill="#B85E27">
			<path d="M101.159 36.669C98.485 49.881 97.862 63.977 95.682 77.508 70.858 79.259 57.088 91.415 44.166 104.369L45.904 76.706C52.025 63.822 60.97 66.785 72.697 55.392 84.169 44.874 86.931 36.351 101.159 36.669Z"/>
			<path d="m22.584 144.481c4.349-3.74 8.497-7.961 14.633-10.245 14.921-5.425 30.74-9.8 44.879-11.31 14.977-1.6 30.1-0.43 50.196 3.158-10.157 3.293-13.484 2.383-11.069 6.937-4.275 1.934-14.345 0.18-22.133-0.121-25.167-0.224-50.459 1.07-76.506 11.582z"/>
		</g>
		<path fill="#260e0e" d="M172.896 142.379C150.428 127.626 123.82 123.874 98.155 121.875 91.708 112.262 95.796 92.319 95.682 77.508 106.318 76.515 147.016 81.85 164.561 110.369c0.875 7.687 1.842 17.088 8.335 32.01z"/>
		<path fill="#1f1f00" fill-opacity="0.7" d="m37.642 154.007c0.317-6.056 2.09-11.381 7.616-13.978 23.244-6.111 48.424-6.578 74.186-3.374 32.061 4.905 50.873 8.764 49.002 24.304 12.352 17.977-2.078 40.253-8.69 46.214l-3.203 8.714c-1.221 15.544-4.593 23.064-12.816 31.617-3.154 3.281-6.494 6.96-11.306 10.411-3.86 5.693-9.326 9.228-16.036 11.092-0.511-2.885-0.468-5.858 3.742-9.488 21.665-25.149 21.769-41.445 23.895-44.458 3.949-5.598 8.512-33.95 6.574-53.63-27.976-10.266-59.926-12.063-93.678-10.023-7.117 4.827-13.938 7.327-19.286 2.599z"/>
		<g fill="#000000">
			<path d="m154.615 69.691c11.331 7.325 8.124 26.451 9.946 40.679-18.309-25.76-54.748-31.314-68.879-32.861 1.677-13.673 3.203-27.405 5.477-40.839 11.793 0.415 23.64 3.46 35.683 16.25 6.745 4.934 12.258 10.854 17.773 16.771z"/>
			<path d="m30.469 174.527c-25.412-6.671-35.725-19.54-7.05-30.407 5.373-2.145 22.172-10.055 61.065-11.304 26.479-0.734 27.541 2.612 36.74 0.205-5.837-2.4-11.258-7.162 9.205-7.271 12.886 2.878 26.79 5.855 42.024 15.613 49.107 21.288 27.031 32.109 0.424 42.016 1.336-7.912-0.219-15.715-5.297-22.482 1.528-16.215-20.259-17.125-50.113-23.921-24.589-3.326-47.574-2.471-72.163 3.274-5.853 3.124-6.898 8.422-7.55 13.898-8.222 4.436-5.772 13.213-7.283 20.379z"/>
			<path d="m74.835 56.661c2.728-3.171 9.822-10.993 13.698-4.31l0.167 12.829c-1.347 3.398-4.941 5.674-3.809 1.236-5.113 2.209-8.712-3.937-10.056-9.755z"/>
		</g>
	</g>
	<g fill="none" stroke="#000000" stroke-width="0.5" stroke-linecap="round">
		<g>
			<path d="m95.014 196.577l11.960-3.675"/>
			<path d="m99.224 197.445l11.893-3.508"/>
			<path d="m37.750371,169.8058l4.015997,8.12649"/>
			<path d="m40.089 178.877c1.859 3.889 4.448 6.804 7.63 8.93"/>
			<path d="m46.704 191.209c-2.809-2.017-5.277-4.694-7.205-8.41"/>
			<path d="m 45.334 194.233-5.174-5.433"/>
			<path d="m162.813 182.279c1.448-1.013 2.672-2.172 3.213-3.78"/>
			<path d="m155.821 193.004c3.183-2.095 6.096-4.52 7.843-8.363"/>
			<path d="m157.427 201.083c2.003-1.41 3.928-3.047 5.315-5.504"/>
			<path d="m155.679 195.414c3.023-1.722 5.975-3.411 8.693-7.512"/>
			<path d="m156.529 198.343c2.2-1.277 4.456-2.722 7.276-5.859"/>
		</g>
		<g>
			<path d="m44.567 128.891c3.843-2.43 7.83-4.492 12.161-5.679"/>
			<path d="m42.83 126.352c5.196-2.95 10.796-5.647 16.704-8.152"/>
			<path d="M63.944 111.719C56.584 114.96 49.744 118.768 43.364 123.078"/>
			<path d="m62.675 107.376c-5.622 2.731-10.88 6.069-15.969 9.689"/>
			<path d="m61.338 104.97c-6.242 2.768-12.198 5.92-17.64 9.755"/>
			<path d="m58.666 101.095c-4.634 2.279-9.017 5.186-13.297 8.352"/>
			<path d="m54.456 100.56c-2.8 1.782-5.24 3.564-7.417 5.345"/>
			<path d="M53.696 87.312C52.33 87.521 52.985 86.475 53.649 85.423"/>
			<path d="m58.161 80.863c-1.229-0.498-0.793-0.959 0.78-1.394"/>
			<path d="m94.68 50.581c-1.384-0.195-0.124-0.92 0.601-1.537"/>
			<path d="m68.755 65.214c2.232 4.224 4.607 7.707 7.283 9.622"/>
			<path d="m78.644 67.82c-2.053-1.927-3.782-4.732-5.212-8.352"/>
			<path d="m82.386 78.644c2.019-3.196 4.529-6.024 7.617-8.419"/>
			<path d="m90.003 66.416c-3.406 2.59-5.836 5.54-7.55 8.753"/>
			<path d="M77.308 71.762C74.836 70.018 73.04 66.622 71.361 62.942"/>
			<path d="m73.634 83.013c-6.776 8.374-4.758 11.188-7.661 12.01-5.277 1.414 2.216-11.017-10.961 0.047"/>
		</g>
		<g stroke-width="1">
			<path d="m38.601 176.94c0.057 3.331 0.476 6.464 1.512 9.26 1.302 20.404-1.834 47.179 19.087 60.155 12.726 9.947 21.971 23.376 40.558 23.119 16.845 1.739 25.717-2.052 32.674-11.559 5.269-3.878 9.016-7.688 12.45-11.792 6.236-7.453 9.623-10.566 11.671-30.236 3.975-10.67 6.893-20.471 8.915-32.916"/>
			<path d="M40.491 200.987C28.954 189.27 30.469 174.527 30.936 169.248c0.539-7.36 1.692-12.817 6.815-15.101"/>
			<path d="m159.756 207.173c10.618-10.796 19.783-29.474 7.822-46.277"/>
			<path d="M44.166 104.369C64.497 83.069 87.082 72.324 113.656 80.248"/>
			<path d="m37.217 134.236c3.26-9.851 5.281-19.84 6.949-29.867 0.512-9.355 1.049-18.66 1.737-27.662 2.615-7.135 8.616-9.724 14.232-12.829 20.65-9.098 21.317-27.784 41.023-27.209 9.085 0.617 22.18 1.626 35.683 16.25 6.015 5.137 12.098 9.934 17.773 16.771 12.238 9.025 8.068 27.758 9.946 40.679 1.247 11.254 2.713 20.769 9.353 33.783"/>
			<path d="m20.751 147.352c3.179-4.829 9.312-10.086 16.437-12.963 17.148-5.674 30.037-11.058 60.937-12.361 43.575 1.79 61.373 11.444 71.935 21.851"/>
			<path d="m101.159 36.669c-2.349 13.482-3.792 27.191-5.477 40.839 0.542 15.043-4.277 34.072 2.443 44.52"/>
		</g>
	</g>
</svg>