<?xml version="1.0" encoding="UTF-8" standalone="no"?>
<svg xmlns="http://www.w3.org/2000/svg" version="1.1" viewBox="0 0 500 500">
	<g stroke="none">
		<path fill="#F6ED98" fill-rule="evenodd" d="M0 0H500V500H0zm128.67 341.76c0.46 24.77 1.64 42.6 7.41 55.96 9.06 20.95 26.99 30.59 39.15 41.54C191.59 454.01 209.75 474.36 242.66 474.36c41.81 5.66 57.72-16.74 63.92-22.79 4.48-4.37 12.26-11.34 21.51-20.54 15.09-15.01 18.8-27.91 21.61-45.74 1.68-8.93 1.94-15.45 8.43-31.42 14.84-12.38 34.49-41.76 22.45-85.34-39.91-144.4-232.39-97.21-266.11-21.34-14.04 31.58-2.14 86.33 14.19 94.57z"/>
		<path fill="#791F23" d="m121.36 214.28c6.63-20.01 10-39.22 13.89-58.21 24.32-20.24 63.82-48.6 109.92-50.21-2.29 47.72-2.91 70.4 4.67 84.73-58.18 2.07-83.88 8.43-128.48 23.69z"/>
		<g fill="#B85E27">
			<path d="m135.25 156.07 3.38-49.12c1.14-16.59 21.55-24.39 33.23-31.18 15.71-9.13 28.13-23.26 31.73-27.5 16.88-19.86 28.55-22.62 52.17-22.62-3.57 25.34-6.69 54.2-9.92 80.35C205.58 109.49 182.06 118.78 135.25 156.07Z"/>
			<path d="m81.87 238.39c8.97-6.8 29.13-18.79 39.49-24.11 69.76-25.71 132.03-28.97 190.67-15.43l-10.9 18.29C234.42 205.17 155.71 209.79 81.87 238.39Z"/>
		</g>
		<g fill="#3F200E">
			<path d="m266.28 212.54c-21.14-6.43-3.54-15.92 20.27-18.39 33.18 5.25 68.71 18.56 93.33 33.01 15.25 8.95 36.35 25.78 40.4 30.16C393.43 241.64 311.58 216.9 266.28 212.54Z"/>
			<path d="m255.76 25.65c-3.54 25.39-7.96 54.79-10.9 80.22 57.41 0.66 119.43 38.08 122.03 66.92-1.48-32.02 0.22-62.87-14.58-75.7C341.4 87.63 322.61 70.83 313.24 56.77 295.8 30.61 282.77 27.86 255.76 25.65Z"/>
		</g>
		<path fill="#3F1012" d="m247.93 190.59c-7.13-16.28-4.88-56.63-3.07-84.72 63.17 2.63 112.56 36.72 121.92 63.6 2.07 18.73 5.51 41.84 15 58.31-44.52-20.96-74.19-34.15-133.85-37.19z"/>
		<path fill="#0C0602" d="m213.59 82.05c-0.29 5.64-0.55 10.47 6.76-0.94 2.58-4.03 4.73-24.28-2.86-28.52-8.65-4.85-13.87 1.14-22.82 11.78-1.03 6.07 9.57 25.22 18.92 17.68z"/>
		<path fill="#000" d="m305.17 115.91c2.59-1.5-2.1-13.34-2.1-20.34 0-7.27 10.29-13.52 10.29-22.79 0-8.64-6.2-16.15-8.84-17.67-8.09-4.67-15.31 17.12-8.98 36.6 4.6 14.17 4.79 22.76 9.63 24.21z"/>
		<path fill="#261308" d="M 108.95,291.8 C 73.31,281.78 60.97,269.88 61.85,259.54 62.72,249.34 76.63,239.69 93.81,233.86 c 57.47758,-19.50097 118.62175,-26.61884 183.21706,-20.09936 43.19864,4.35995 158.43969,36.60922 158.43969,60.39793 0,7.33035 -9.68675,20.86143 -52.00675,34.36143 2.1,-15.73 0.03,-30.6 -9.45,-42.81 -1.80077,-15.13823 -5.16977,-21.4841 -8.95583,-27.32643 -85.05554,-26.26328 -144.45689,-30.3787 -233.70699,-10.74284 -3.27,7.94588 -5.48659,14.36927 -6.92659,24.25927 -16.91471,4.74 -16.02647,30.63353 -15.46059,39.89 z"/>
		<path fill-opacity="0.5" fill="#000" d="m124.42 251.9c1.52-9.7 3.69-16.53 6.93-24.26 98.41-25.27 160.88-10.73 233.75 10.96 2.01 0.6 7.9 14.05 8.89 27.12 23.15 33.11 1.47 74.74-15.69 87.69-23.35 63.4 8.16 41.13-53.29 99.79-10.96 10.46-23.69 19.37-36.57 21.08-5.81-26.43 20.23-16.93 47.61-73.43 4.25-7.44 7.84-21.29 10.79-28.43 13.4-32.48 23.88-50.19 17.59-112.82C258.21 243.22 223.04 242.62 124.42 251.9Z"/>
	</g>
	<g fill="none" stroke="#000">
		<g stroke-width="0.5">
			<path d="m126.43 307.77c3.66 5.94 7.11 12.02 13.7 16.06"/>
			<path d="m122.94 282.63c2.38 5.55 4.92 10.76 7.65 15.59"/>
			<path d="m127.38 299.83c4.39 8.01 9.11 14.61 14.74 17.48"/>
			<path d="m137.3 329.5c-1.72-1.41-5.56-4.64-9.45-10.11"/>
			<path d="m353.6 342.92c4.1-2.86 8.02-6.24 10.41-10.61"/>
			<path d="m351.99 337.53c4.58-2.63 9.18-5.9 12.65-10.32"/>
			<path d="m350.1 332.05c6.07-2.97 11.74-7.55 16.91-14.08"/>
			<path d="m366.07 310.98c-5.12 9.29-9.95 12.31-15.59 16.44"/>
			<path d="m363.71 306.54c2.58-1.3 4.84-3.66 6.71-7.28"/>
			<path d="m232.86 334.29c7.83-2.46 15.69-4.87 23.65-7.08"/>
			<path d="m241.14 335.96c7.57-2.38 15.32-4.77 23.52-7.15"/>
		</g>
		<g stroke-width="1">
			<path d="m140.42 159.41c4.25-3.81 9.07-7.18 14.74-9.92"/>
			<path d="m137.3 166.5c7.63-5.97 16.38-11.37 25.42-16.63"/>
			<path d="m134.28 175.95c9.63-6.58 20.88-12.75 33.36-18.62"/>
			<path d="m139.95 180.77c9.67-7.09 19.98-13.11 30.71-18.43"/>
			<path d="m133.43 192.77c12.2-8.46 25.82-15.51 39.78-22.21"/>
			<path d="m132.39 199c9.52-6.35 21.21-10.96 32.41-15.97"/>
			<path d="m136.35 203.92c6.95-5.19 14.78-8.62 23.15-10.96"/>
			<path d="m153.17 119.63c-0.64 1.69-2.71 4.03 0.28 4.06"/>
			<path d="m161.87 110.75c-1.5-0.78-1.67-1.6 1.8-2.55"/>
			<path d="m232.66 52.79c-1.95-0.77-0.86-1.94 1.07-3.21"/>
			<path d="M196.31 98.76C190.86 94.78 186.48 88.65 182.81 81.12"/>
			<path d="m191.63 69.09c2.41 6.51 4.95 12.9 10.16 16.97"/>
			<path d="m187.62 76.31c2.95 7.06 6.58 12.94 10.96 17.51"/>
			<path d="m208.47 107.04c2.83-4.91 6.38-9.99 14.83-16.3"/>
			<path d="m223.84 82.99c-6.63 5.5-12.15 11.11-15.23 16.97"/>
			<path d="m159.42 138.6c6.37-5.2 16.64-11.6 16.96-0.86 0 7.75 8.4 3.8 8.4-0.19 0-5.1 5.56-14.16 9.04-18.77"/>
			<path d="m348.07 129.66c7.54 6.9 16.31 17.14 17.88 26.81"/>
			<path d="m348.94 121.02c7.4 5.5 15.27 14.4 16.47 21.99"/>
			<path d="m349.85 112.69c6.58 4.15 13.43 12.7 14.8 19.44"/>
			<path d="m312.94 133.17c13.07 7.41 24.4 16.22 35.48 25.22"/>
			<path d="M352.91 169.3C340.64 159.28 328.26 149.46 314.01 143"/>
			<path d="m350.77 174.64c-11.92-9.02-24.01-17.39-36.34-24.8"/>
			<path d="M349.06 178.27C337.76 170.07 326.12 162.55 313.79 156.47"/>
			<path d="M352.7 187.68C341.57 179.33 329.98 171.78 317.64 165.45"/>
			<path d="m353.55 199.86c-10.42-7.25-21.98-13.6-34.41-19.24"/>
			<path d="M356.55 205.85C345.62 198.91 334.07 193.24 322.34 187.89"/>
			<path d="m251.94 106.94c2.54 1.09 2.64 8.66 6.14 9.6 1.88 0.5 5.24-4.68 8.08-8.18"/>
			<path d="m244.68 133.83c3.82-8.82 6.12-1.33 3.95 1.77-1.75 2.51-5.62 2.08-3.95-1.77z"/>
		</g>
		<g stroke-width="1.5">
			<path d="m124.54 296.05c-0.39 20.53 3.91 14.71 4.16 46.11 0.41 51 6.59 66.06 36.85 89.11 22.55 17.18 39.2 43.09 77.11 43.09 22.48 2.56 42.36 0.5 62.37-21.17 7.53-8.15 16.28-14.97 25.14-24.19 23.1-24.03 15.82-46.05 27.03-72.76 6.76-16.1 8.99-33.82 12-48.57"/>
			<path d="m128.16 341.7c-18.54-10.55-31.24-84.37-3.74-89.8 1.26-10.24 3.31-15.48 6.93-24.26 63.49-13.82 128.03-23.89 233.71 10.74 3.94 5.17 7.77 15.39 8.96 27.34 24.36 35.07-0.9 77.23-15.87 88.15"/>
			<path d="m121.61 214.08c6.37-17.91 10.81-38.02 13.34-58.53 2.09-16.98 2.37-27.46 3.28-44.21 0.91-16.65 4.25-19.47 34.16-35.84 33.02-18.07 37.36-49.18 72.43-49.98 32.4-0.74 50.81 5.15 68.15 30.87 13.93 20.66 41.7 38.41 47.22 50.55 5.83 12.82 4.08 34.57 6.73 65.24 1.63 18.82 6.64 37.65 15.28 56.06"/>
			<path d="m135.26 156.07c21.89-19.1 70.12-53.48 117.8-49.8 60.2 4.64 107.44 40.74 113.72 63.2"/>
			<path d="m66.8 248.64c11.66-11.13 46.49-30.13 54.66-34.19 104.62-38.51 188.85-27.38 260.74 13.8 2.94 2.29 22.87 16.24 48.1 35.99"/>
			<path d="M108.5 291.53C46.25 274.48 50.88 248.57 93.38 234.35 197.86 199.38 289.13 206.63 369.2 235.46 438.74 260.51 468.65 276.88 383.33 308.57"/>
		</g>
	</g>
</svg>