<?xml version="1.0" encoding="UTF-8" standalone="no"?>
<svg xmlns="http://www.w3.org/2000/svg" version="1.1" viewBox="0 0 500 500">
	<g stroke="none">
		<g fill="#F6ED88" fill-rule="evenodd">
			<path d="M0 0H500V500H0ZM128.3 342.29C116.32 334.43 110.56 308.57 108.95 291.8 36.31 271.16 60.12 245.51 94.02 233.69c8.49-7.41 15.97-16.09 27.59-19.6 6.11-18.52 11.45-37.97 13.63-58.53 1.8-16.95 2.47-33.14 3.58-50.07C139.62 93.2 155.92 84.61 173.03 75.09c31.07-17.28 42.45-46.87 71.25-49.55 24.99-2.32 52.25 7.42 68.69 30.87 13.66 19.48 22.59 25.77 37.59 38.85C369.58 111.84 365.16 141.79 366.56 167.58c0.3 10.41 5.01 38.59 15.64 60.68 22.41 11.83 56.24 31.54 56.54 44.5 0.34 14.7-29.46 25.39-55.27 35.78-3.93 17.89-11.51 34.49-25.14 44.88-9.52 19.82-7.76 44.04-17.04 60.85-6.03 10.91-16.89 22.23-36.25 38.94-20.55 23.76-44.81 22.94-62.37 21.17-41.26-0.84-60.38-28.35-77.07-43.18-18.82-12.44-27.94-27.03-31.91-42.35-4.28-16.5-5.18-33.5-5.37-46.53z"/>
		</g>
		<g fill="#B55F2D">
			<path d="m135.24 155.55 3.39-48.6C141.34 87.6 159.88 82.01 171.86 75.77c15.38-9.67 28.13-23.26 31.73-27.5 16.88-19.86 28.97-22.62 50.71-22.62-3.57 25.13-6.21 54.07-9.44 80.22C207.06 102.17 158.6 132.17 135.25 155.55Z"/>
			<path d="m81.87 238.39c8.97-6.8 28.1-20.33 39.49-24.11 69.76-25.71 132.03-28.97 190.67-15.43l-9.89 17.24c-67.59-7.7-146.43-6.3-220.27 22.3z"/>
		</g>
		<g fill="#771F25">
			<path d="m121.36 214.28c6.63-20.01 10-39.22 13.89-58.21 22.11-23.33 62.95-54.65 109.61-50.2-2.91 47.51-4.99 71.11 4.98 84.72-58.18 2.07-83.88 8.43-128.48 23.69z"/>
		</g>
		<g fill="#250E0E">
			<path d="m249.84 190.59c-12.13-16.57-6.79-56.63-4.98-84.72 54.64 5.13 121.41 38.55 122.04 66.92 3.84 18.83 5.75 38.47 15.24 54.94-44.52-20.96-73.08-33.36-132.3-37.14z"/>
		</g>
		<g fill="#000" fill-opacity="0.5">
			<path d="m122.94 251.9c1.52-9.7 0.14-19.9 15.58-27.19 75.14-16.22 152.29-10.29 213.93 12.95 10.78 5.02 23.2 7.29 21.54 28.06 24.33 32.96 1.47 74.74-15.69 87.69-17.85 43.07 5.06 48.91-53.29 99.79-8.99 12.19-19.43 17.81-30.43 20.98-2.56-10.81 3.33-16.85 7.55-21.07 13.83-13.83 23.4-33.89 33.92-52.26 4.24-7.45 6.93-21.74 10.79-28.43 12.45-32.85 17.23-42.76 14.27-107.06-66.24-20.47-124.97-23.4-180.67-19.28-10.34 5.07-21.19 17.82-37.51 5.84z"/>
		</g>
		<g fill="#1E1008">
			<path d="m254.3 25.65c-3.54 25.54-6.21 54.05-9.44 80.22C295.51 111.6 364.29 143.95 366.89 172.79 365.92 148.2 367.99 110.58 352.31 97.09 341.36 87.67 322.61 70.83 313.24 56.77 295.8 30.61 287.34 25.65 254.3 25.65Z"/>
			<path d="M108.95 291.8C73.31 281.78 60.53 269.73 61.41 259.39c0.87-10.2 15.83-18.14 32.4-25.53 56.73-22.47 118.45-27.24 183.07-20.97 4.91 0.31 8.42-0.99 5.46-2.36-22.97-8.37 4.54-15.25 28.73-11.66 18.78 5.19 46.56 16.21 71.13 29.38 16.65 8.58 56.72 29.11 56.65 44.21C438.79 284.1 425.78 295.02 383.46 308.52c2.1-15.73 0.03-30.6-9.45-42.81 0.91-10.06-1.29-18.77-11.91-23.81-73.98-30.28-148.59-32.21-223.57-17.2-14.52 6.99-14.14 17.3-15.58 27.19-15.15 4.74-13.6 30.57-13.99 39.9z"/>
			<path d="m213.59 82.05c-0.29 5.64-0.21 10.49 7.38-0.73l-0.1-24.75c-8.96-13.5-20.92 2.59-26.2 7.8-0.51 3.14 9.16 26.71 18.93 17.68z"/>
		</g>
		<g fill="#000">
			<path d="m309.85 119.86c2.59-1.5-5.74-16.88-5.74-23.88 0-7.27 9.25-13.94 9.25-23.21 0-8.64-4.95-15.32-7.59-16.84-8.09-4.67-13.77 17.55-8.46 37.33 2.32 8.65 11.29 27.32 12.55 26.6z"/>
		</g>
	</g>
	<g fill="none" stroke="#000" stroke-linecap="round">
		<g stroke-width="0.5">
			<path d="m126.43 307.77c3.66 5.94 7.11 12.02 13.7 16.06"/>
			<path d="m122.94 282.63c2.38 5.55 4.92 10.76 7.65 15.59"/>
			<path d="m127.38 299.83c4.39 8.01 9.11 14.61 14.74 17.48"/>
			<path d="m137.3 329.5c-1.45-1.68-4.89-5.31-9.45-10.11"/>
			<path d="m232.86 334.29c7.83-2.46 15.69-4.87 23.65-7.08"/>
			<path d="m241.14 335.96c7.57-2.38 15.32-4.77 23.52-7.15"/>
			<path d="m353.6 342.92c4.1-2.86 8.02-6.24 10.41-10.61"/>
			<path d="m351.99 337.53c4.58-2.63 9.18-5.9 12.65-10.32"/>
			<path d="m350.1 332.05c6.07-2.97 11.74-7.55 16.91-14.08"/>
			<path d="m366.07 310.98c-5.12 9.29-9.95 12.31-15.59 16.44"/>
			<path d="m363.71 306.54c2.58-1.3 4.84-3.66 6.71-7.28"/>
		</g>
		<g stroke-width="1">
			<path d="m140.42 159.41c4.25-3.81 9.07-7.18 14.74-9.92"/>
			<path d="m137.3 166.5c7.63-5.97 16.38-11.37 25.42-16.63"/>
			<path d="m134.28 175.95c9.63-6.58 20.88-12.75 33.36-18.62"/>
			<path d="m139.95 180.77c9.67-7.09 19.98-13.11 30.71-18.43"/>
			<path d="m133.43 192.77c12.2-8.46 25.82-15.51 39.78-22.21"/>
			<path d="m132.39 199c9.52-6.35 21.21-10.96 32.41-15.97"/>
			<path d="m136.35 203.92c6.95-5.19 14.78-8.62 23.15-10.96"/>
			<path d="m153.17 119.63c-0.64 1.69-2.71 4.03 0.28 4.06"/>
			<path d="m161.87 110.75c-1.5-0.78-1.67-1.6 1.8-2.55"/>
			<path d="m232.66 52.79c-1.95-0.77-0.86-1.94 1.07-3.21"/>
			<path d="M196.31 98.76C190.86 94.78 186.48 88.65 182.81 81.12"/>
			<path d="m191.63 69.09c2.41 6.51 4.95 12.9 10.16 16.97"/>
			<path d="m187.62 76.31c2.95 7.06 6.58 12.94 10.96 17.51"/>
			<path d="m208.47 107.04c2.83-4.91 6.38-9.99 14.83-16.3"/>
			<path d="m223.84 82.99c-6.63 5.5-12.15 11.11-15.23 16.97"/>
			<path d="m156.22 136.8c6.37-5.2 17.65-12.5 17.97-1.76 0 7.75 7.88 3.38 7.88-0.61 0-5.1 6.08-14.89 9.56-19.5"/>
			<path d="m348.07 129.66c7.54 6.9 16.31 17.14 17.88 26.81"/>
			<path d="m348.94 121.02c7.4 5.5 15.27 14.4 16.47 21.99"/>
			<path d="m349.85 112.69c6.58 4.15 13.43 12.7 14.8 19.44"/>
			<path d="m312.94 133.17c13.07 7.41 24.4 16.22 35.48 25.22"/>
			<path d="M352.91 169.3C340.64 159.28 328.26 149.46 314.01 143"/>
			<path d="m350.77 174.64c-11.92-9.02-24.01-17.39-36.34-24.8"/>
			<path d="M349.06 178.27C337.76 170.07 326.12 162.55 313.79 156.47"/>
			<path d="M352.7 187.68C341.57 179.33 329.98 171.78 317.64 165.45"/>
			<path d="m353.55 199.86c-10.42-7.25-21.98-13.6-34.41-19.24"/>
			<path d="M356.55 205.85C345.62 198.91 334.07 193.24 322.34 187.89"/>
			<path d="m252.77 107.04c2.54 1.09 2.33 9.39 5.83 10.33 1.88 0.5 3.58-3.74 6.62-7.87"/>
		</g>
		<g stroke-width="1.5">
			<g>
				<path d="m121.61 214.08c6.37-17.91 10.05-38.18 13.63-58.53 1.03-17.08 2.1-27.46 2.99-44.21 0.93-16.65 4.25-19.47 34.16-35.84 33.02-18.07 37.35-49.98 72.43-49.98 40.93 0 52.28 3.39 68.15 30.87 12.46 21.58 41.7 38.41 47.22 50.55 5.83 12.82 4.82 34.51 6.73 65.24 2.37 18.74 6.64 37.65 15.28 56.06"/>
				<path d="m254.3 25.65-9.73 78.63c-1.09 28.85-6.3 72.42 5.27 86.3"/>
				<path d="m135.26 156.07c22.76-25.44 56.91-49.25 99.29-51.05 36.99 0 122.42 32.13 132.23 64.45"/>
				<path d="m67.58 248.59c11.66-11.13 46.13-31.95 53.88-34.14C226.08 175.94 310.31 187.07 382.2 228.25c3.36 1.56 60.32 28.35 56.54 46.85"/>
				<path d="M108.78 291.59C46.53 274.54 50.79 249.98 92.79 234.35c93.21-36.24 201.92-28.55 284.95 3.41 68.99 26.55 90.91 39.12 5.59 70.81"/>
			</g>
			<g>
				<path d="m124.54 296.05c0.7 6.38 0.66 13.59 3.12 18.24 0.09 76.37 7.06 94.7 37.89 116.98 21.96 17.93 39.2 43.09 77.11 43.09 22.48 2.56 44.45 2.26 62.37-21.17 8.38-6.82 16.76-14.53 25.14-24.19 23.57-23.57 15.52-46.18 27.03-72.76 6.46-16.22 8.99-33.82 12-48.57"/>
				<path d="m128.16 341.7c-18.54-10.55-29.48-82.9-5.21-89.8 1.26-10.24 1.56-20.76 15.58-27.19 60.38-11.22 138.31-18.38 224.29 17.57 6.25 2.96 11.91 8.42 11.19 23.44 24.36 35.07-0.9 77.23-15.87 88.15"/>
			</g>
		</g>
	</g>
</svg>