<?xml version="1.0" encoding="UTF-8" standalone="no"?>
<svg xmlns="http://www.w3.org/2000/svg" version="1.1" viewBox="0 0 40 40">
	<path fill="#F4DC42" stroke="#000" d="m1.9 20.5c0-8.9 5.6-18 18.4-18.3 9.1 0 17.8 7.3 17.8 17.8 0 15-13.2 18.1-18 18.1-10.6 0-18.2-8.5-18.2-17.6z"/>

	<g fill="#000000" stroke="none">
		<path d="m25.6 18.6c-2 0-1.9-6.2-1-7.2C25.9 10.2 26.5 11 27 14.1c0.3 2.4-0.2 3.2-0.3 3.5-0.2 0.4-0.7 1-1.1 1z"/>
		<path d="m16 11.8c0.6 1 0.5 1.9 0.5 3 0 4.4-2.3 5.5-3 1.3-0.2-1.9 0.3-7.4 2.5-4.3z"/>
		<path d="M9.8 25.5C8.6 26.1 8.1 25.2 9.4 24.2 10.7 23.3 11.8 23.7 10.7 24.9c6.8 6.2 13.2 6 19.2 0.4-0.7-1.2 0.1-1.7 1-0.8 0.9 1.1 1.2 2.3-0.5 1.6-7.9 8.1-14.4 5-20.6-0.6z"/>
	</g>

	<path fill="#98192F" stroke="none" d="M20.2 19.8C18.8 18.3 17.1 16.9 15.3 15.5l-3.2-4.1c0.8-0.2 2-0.2 0.6-1.6 0 0-1.7-0.9-1.9-1.3C10.4 7.8 9.5 8.1 9 8.4 8 9.1 8.1 10.1 8.4 11.2c0.2 2 0.3 4.9 1 2.2 0.5-1.8 0.6-0.7 1.2 1.3 1 3.8 1.9 2.4 1.3 0.3-1.1-2.9 0.1-1.8 1.4-0.8 1.8 1.8 3.1 3.8 4.3 5.9 2.3 4 4.4 1.9 2.7-0.2z"/>
</svg>